<?xml version="1.0" standalone="no"?>
<!DOCTYPE svg PUBLIC "-//W3C//DTD SVG 20010904//EN"
 "http://www.w3.org/TR/2001/REC-SVG-20010904/DTD/svg10.dtd">
<svg version="1.0" xmlns="http://www.w3.org/2000/svg"
 width="260.000000pt" height="260.000000pt" viewBox="0 0 260.000000 260.000000"
 preserveAspectRatio="xMidYMid meet">
<metadata>
Created by potrace 1.11, written by Peter Selinger 2001-2013
</metadata>
<g transform="translate(0.000000,260.000000) scale(0.100000,-0.100000)"
fill="#000000" stroke="none">
<path d="M1440 2046 l0 -105 48 -6 c126 -17 241 -66 343 -147 l51 -40 75 74
74 74 -78 62 c-131 104 -286 168 -450 186 l-63 7 0 -105z"/>
<path d="M1165 2108 c-16 -5 -61 -24 -98 -41 l-68 -30 3 -426 3 -426 33 -68
c63 -127 179 -213 322 -239 170 -29 364 70 440 226 85 173 55 362 -79 497
-115 115 -286 155 -435 103 -21 -8 -40 -14 -42 -14 -2 0 -4 97 -4 215 l0 215
-22 -1 c-13 0 -36 -5 -53 -11z m333 -623 c137 -58 166 -243 53 -338 -99 -83
-252 -50 -307 66 -31 67 -30 110 2 175 48 97 154 138 252 97z"/>
<path d="M744 1808 c-182 -245 -218 -586 -90 -862 107 -232 307 -399 561 -467
102 -28 295 -30 398 -6 131 32 277 109 381 200 l39 35 -30 38 c-17 22 -49 57
-72 78 l-40 39 -38 -33 c-67 -59 -155 -110 -237 -137 -102 -33 -254 -37 -356
-9 -176 48 -327 172 -405 331 -63 128 -65 149 -58 521 3 184 3 334 0 334 -4 0
-28 -28 -53 -62z"/>
</g>
</svg>
