<?xml version="1.0" standalone="no"?>
<!DOCTYPE svg PUBLIC "-//W3C//DTD SVG 20010904//EN"
 "http://www.w3.org/TR/2001/REC-SVG-20010904/DTD/svg10.dtd">
<svg version="1.0" xmlns="http://www.w3.org/2000/svg"
 width="1200.000000pt" height="1200.000000pt" viewBox="0 0 1200.000000 1200.000000"
 preserveAspectRatio="xMidYMid meet">
<metadata>
Created by potrace 1.11, written by Peter Selinger 2001-2013
</metadata>
<g transform="translate(0.000000,1200.000000) scale(0.100000,-0.100000)"
fill="#000000" stroke="none">
<path d="M5615 10539 c-911 -61 -1790 -403 -2500 -971 -670 -538 -1173 -1261
-1445 -2078 -304 -915 -304 -1895 0 -2810 445 -1338 1492 -2385 2830 -2830
915 -304 1895 -304 2810 0 1338 445 2385 1492 2830 2830 304 915 304 1895 0
2810 -445 1338 -1492 2385 -2830 2830 -546 181 -1132 257 -1695 219z m2255
-2376 c0 -10 -5 -70 -10 -133 -27 -300 -120 -513 -301 -685 -121 -114 -235
-180 -391 -226 -66 -19 -109 -22 -438 -30 -403 -9 -475 -18 -624 -78 -291
-116 -548 -388 -645 -681 -55 -169 -54 -147 -61 -980 -6 -759 -6 -777 -28
-855 -63 -229 -222 -447 -417 -574 -162 -105 -396 -171 -608 -171 l-88 0 4
1248 c3 1364 0 1287 62 1533 111 436 367 829 750 1147 321 268 733 443 1150
490 44 5 432 10 863 11 739 1 782 0 782 -16z"/>
<path d="M600 8800 c0 -5 5 -10 11 -10 5 0 7 5 4 10 -3 6 -8 10 -11 10 -2 0
-4 -4 -4 -10z"/>
</g>
</svg>
